<?xml version="1.0" standalone="no"?>
<!DOCTYPE svg PUBLIC "-//W3C//DTD SVG 1.1//EN" "http://www.w3.org/Graphics/SVG/1.1/DTD/svg11.dtd" >
<svg xmlns="http://www.w3.org/2000/svg">
<metadata></metadata>
<defs>
<font id="readabiliconsregular" horiz-adv-x="2000" >
<font-face units-per-em="2000" ascent="1600" descent="-400" />
<missing-glyph horiz-adv-x="600" />
<glyph />
<glyph />
<glyph unicode="&#xd;" />
<glyph unicode=" "  horiz-adv-x="600" />
<glyph unicode="&#x09;" horiz-adv-x="600" />
<glyph unicode="&#xa0;" horiz-adv-x="600" />
<glyph unicode="&#x25fc;" horiz-adv-x="500" d="M0 0z" />
<glyph unicode="&#xe001;" d="M1900 1440v-300h-100v-1300h-1600v1300h-100v300h1800zM1800 1340h-1600v-100h1600v100zM1700 1140h-1400v-1200h1400v1200zM1400 640h-800v300h800v-300zM1300 840h-600v-100h600v100z" />
<glyph unicode="&#xe002;" d="M1900 1450v-200h-1800v200h1800zM200 1150h1600v-1300h-1600v1300zM600 650h800v200h-800v-200z" />
<glyph unicode="&#xe003;" d="M980 190h50q17 0 33.5 -14.5t16.5 -35.5t-16.5 -35.5t-33.5 -14.5h-200q-22 0 -36 14t-14 36t14 36t36 14h50l-110 300h-380l-100 -300h50q17 0 33.5 -14.5t16.5 -35.5t-16.5 -35.5t-33.5 -14.5h-200q-22 0 -36 14t-14 36t14 36t36 14h40l350 1010h10q0 30 20 30h10h10 h10h10q15 0 30 -30zM740 590l-160 440l-150 -440h310zM1810 190h50q17 0 33.5 -14.5t16.5 -35.5t-16.5 -35.5t-33.5 -14.5h-100q-22 0 -36 14t-14 36v20q-105 -70 -200 -70q-127 0 -213.5 72.5t-86.5 177.5t86.5 177.5t213.5 72.5q110 0 200 -60v60q0 82 -59 141t-141 59 q-57 0 -101.5 -25t-68.5 -65q-30 -20 -40 -20q-22 0 -36 14t-14 36q0 20 10 30q38 61 103.5 95.5t146.5 34.5q122 0 211 -87t89 -213v-400zM1510 190q82 0 141 45t59 105t-59 105t-141 45q-88 0 -144 -44t-56 -106t56 -106t144 -44z" />
<glyph unicode="&#xe004;" d="M290 1490h1410q38 0 64 -26t26 -64v-1410q0 -38 -26 -64t-64 -26h-400v620h200l30 240h-230v150q0 59 25 89.5t95 30.5h120v210q-2 0 -67 5t-113 5q-145 0 -227.5 -82.5t-82.5 -237.5v-170h-210v-240h210v-620h-760q-38 0 -64 26t-26 64v1410q0 38 26 64t64 26z" />
<glyph unicode="&#xe005;" d="M1900 1200q-90 -125 -180 -190v-40q0 -149 -42 -296.5t-128 -281.5t-205 -237t-286 -164t-359 -61q-304 0 -560 160q15 0 45 -5t45 -5q242 0 450 160q-118 0 -210 72.5t-130 187.5q20 -10 70 -10q60 0 90 10q-122 23 -206 125t-84 235q100 -40 170 -40q-75 45 -117.5 124 t-42.5 176q0 80 40 180q136 -166 331 -265.5t419 -114.5q-10 30 -10 80q0 157 104.5 263.5t255.5 106.5q77 0 146.5 -31t113.5 -89q129 32 230 90q-49 -131 -160 -200q105 15 210 60z" />
<glyph unicode="&#xe006;" d="M150 1300h1700q22 0 36 -14t14 -36v-1200q0 -17 -14.5 -33.5t-35.5 -16.5h-1700q-21 0 -35.5 16.5t-14.5 33.5v1200q0 22 14 36t36 14zM1800 960v240h-1600v-240l800 -350zM1800 850l-780 -340h-10h-10h-10h-10l-780 340v-750h1600v750z" />
<glyph unicode="&#xe007;" horiz-adv-x="2004" d="M1000 1500q-16 0 -28 -8t-12 -22l-210 -560l-600 -20q-16 0 -28 -8t-12 -22q-8 -15 -1.5 -33.5t21.5 -26.5l470 -360l-170 -580q-7 -15 -1 -28.5t21 -21.5q10 -10 30 -10t30 10l490 330l490 -340q5 0 15 -5t15 -5t15 5t15 5q33 33 20 60l-170 570l480 370q23 23 10 50 q0 15 -12.5 27.5t-27.5 12.5l-600 10l-200 570q-15 30 -50 30zM1150 870l30 -60l70 -10l450 -10l-360 -280l-60 -40l20 -60l130 -440l-370 260l-60 40l-60 -40l-370 -260l130 440l20 60l-60 40l-360 280l460 20h70l20 60l150 430z" />
<glyph unicode="&#xe013;" d="M1770 1280v-300h-100l-100 -1200h-1100l-100 1200h-100v300h400v100q0 84 56 142t144 58h300q82 0 141 -59t59 -141v-100h400zM770 1280h500v100q0 43 -30.5 71.5t-69.5 28.5h-300q-45 0 -72.5 -27.5t-27.5 -72.5v-100zM1670 1180h-1300v-100h1300v100zM1570 980h-1100 l100 -1100h900zM740 -20l-70 900h100l70 -900h-100zM1070 -20h-100v900h100v-900zM1290 -20h-100l80 900h100z" />
<glyph unicode="&#xe018;" d="M1460 560l-20 -210q-149 106 -350 130q-10 0 -10 10h-70h-10h-70q-10 -10 -20 -10q-111 -14 -200 -50.5t-140 -79.5l-20 210q-18 88 -80 150v60q10 20 10 40v10q5 5 10 20t10 20q5 10 10 25t10 25q62 123 177.5 204t262.5 96h40h10h40q141 -15 260 -97t180 -203 q5 -10 10 -25t10 -25q10 -10 10 -40l10 -10q0 -20 10 -40v-60zM510 -70q28 0 41 1t19 9t5 15t-3 30.5t-2 44.5l-50 500q-15 92 -72 151t-138 59q-88 0 -149 -63t-61 -147q0 -83 59 -146.5t141 -63.5l130 -310q0 -60 10 -70t70 -10zM1580 20l130 300q82 0 141 63.5t59 146.5 q0 84 -61 147t-149 63q-79 0 -140.5 -65.5t-69.5 -144.5l-50 -500q0 -21 -2 -44.5t-3 -30.5t5 -15t19 -9t41 -1q60 0 70 11t10 79zM1000 460q101 0 196 -29t144.5 -58.5t89.5 -62.5l-20 -220h-810l-20 190v40h-10q41 26 75.5 44t92 43.5t125 39t137.5 13.5z" />
<glyph unicode="&#xe020;" d="M1690 -230h-1390v1700h1390v-1700zM1600 1370h-200v-1200l-200 200l-200 -200v1200h-610v-1500h1210v1500zM1100 1370v-960l100 100l100 -100v960h-200z" />
<glyph unicode="&#xe021;" d="M930 1080h50h70q4 0 21.5 -5t28.5 -5q20 0 80 -20q0 -10 -5 -35t-5 -35q0 -75 57.5 -132.5t132.5 -57.5q46 0 87 21.5t63 58.5q10 -15 30 -40t30 -40q30 -20 70 -80v-10q40 -60 40 -100q20 -30 40 -90q-72 -16 -121 -67t-49 -123q0 -66 50.5 -120.5t119.5 -69.5 q-20 -60 -40 -80q0 -50 -40 -110v-10q-20 -30 -70 -80q-10 -15 -30 -40t-30 -40q-22 37 -63 58.5t-87 21.5q-75 0 -132.5 -57.5t-57.5 -132.5q0 -10 5 -35t5 -35q-60 -20 -80 -20q-11 0 -28.5 -5t-21.5 -5h-70h-50q-11 0 -28.5 5t-21.5 5q-40 0 -100 20q10 20 10 70 q0 77 -54.5 133.5t-135.5 56.5q-39 0 -78.5 -22t-61.5 -58q-50 50 -60 80q-50 50 -70 80v10q-36 54 -50 110q-10 20 -30 80q73 15 116.5 68t43.5 122q0 75 -42.5 125t-117.5 65l30 90q17 50 50 100v10q40 60 70 80q10 30 60 80q22 -36 61.5 -58t78.5 -22q81 0 135.5 56.5 t54.5 133.5q0 50 -10 70q60 20 100 20q4 0 21.5 5t28.5 5zM1080 970q-30 10 -100 10q-60 0 -90 -10q0 -112 -85 -191t-205 -79q-77 0 -130 40q-30 -36 -64.5 -102.5t-35.5 -67.5q63 -39 101.5 -104.5t38.5 -145.5q0 -74 -39.5 -143t-100.5 -107q1 -1 35.5 -67.5t64.5 -102.5 q53 40 130 40q120 0 205 -79t85 -191q30 -10 90 -10q70 0 100 10q8 113 88 191.5t192 78.5q87 0 140 -40q80 120 100 170q-66 37 -103 105t-37 145q0 83 36.5 148t103.5 102q-20 50 -100 170q-53 -40 -140 -40q-112 0 -192 78.5t-88 191.5zM700 320q0 119 83.5 204.5 t196.5 85.5q120 0 205 -85t85 -205q0 -119 -84.5 -199.5t-205.5 -80.5q-114 0 -197 81t-83 199zM1170 320q0 82 -54 136t-136 54q-77 0 -133.5 -54.5t-56.5 -135.5q0 -75 57.5 -132.5t132.5 -57.5q81 0 135.5 56.5t54.5 133.5z" />
<glyph unicode="&#xe022;" d="M1800 1460v-700h-100v530l-1060 -1060l-80 70l1070 1060h-530v100h700zM1500 360h100v-500h-1400v1400h500v-100h-400v-1200h1200v400z" />
<glyph unicode="&#xe024;" d="M1900 690h-1800q-22 0 -36 14t-14 36t14 36t36 14h1800q22 0 36 -14t14 -36t-14 -36t-36 -14zM300 390h1400q22 0 36 -14t14 -36t-14 -36t-36 -14h-1400q-22 0 -36 14t-14 36t14 36t36 14zM100 -10h1800q22 0 36 -14t14 -36t-14 -36t-36 -14h-1800q-22 0 -36 14t-14 36 t14 36t36 14z" />
<glyph unicode="&#xe025;" d="M1800 830q25 -106 37.5 -205t12 -164t-4.5 -115t-9 -73l-6 -23q-19 -96 -80 -120h-390v-100q-8 -69 -51 -122t-109 -68q-10 -10 -50 -10l-300 10q-83 0 -140 59t-50 141v90h-350q-107 0 -120 80l-80 340q-14 36 8 70t62 50l1260 720q12 5 24 5.5t23.5 -4t21 -9t21.5 -15 t19.5 -17.5t20.5 -20q6 -5 16 -16t39 -53.5t55.5 -94.5t60.5 -142t59 -194zM1730 270l10 10q2 8 4 22.5t4.5 65t0.5 107t-14.5 145t-34.5 180.5t-51 172.5t-54 129t-47 84t-35 50.5l-13 14v10q-5 5 -20 15t-20 15l-1230 -710h-10l-10 -10l70 -330q10 -10 30 -10h1410 q10 10 10 40zM1260 130h-500v-90q-7 -43 21.5 -71.5t68.5 -28.5l300 -10q20 0 30 10q65 16 80 90v100z" />
<glyph unicode="&#xe026;" d="M300 1000q75 0 137.5 -62.5t62.5 -137.5t-62.5 -137.5t-137.5 -62.5t-137.5 62.5t-62.5 137.5t62.5 137.5t137.5 62.5zM1000 1000q75 0 137.5 -62.5t62.5 -137.5t-62.5 -137.5t-137.5 -62.5t-137.5 62.5t-62.5 137.5t62.5 137.5t137.5 62.5zM1700 1000q75 0 137.5 -62.5 t62.5 -137.5t-62.5 -137.5t-137.5 -62.5t-137.5 62.5t-62.5 137.5t62.5 137.5t137.5 62.5z" />
<glyph unicode="&#xe027;" d="M1000 1230q-22 0 -36 18t-14 42v210q0 22 14 36t36 14t36 -14t14 -36v-210q0 -24 -14 -42t-36 -18zM510 1070l-80 70q-15 15 -15 40t15 40q48 32 80 0l70 -80q15 -15 15 -35t-15 -35t-35 -15t-35 15zM1540 1140l-80 -70q-15 -15 -35 -15t-35 15t-15 35t15 35l70 80 q15 15 40 15t40 -15t15 -40t-15 -40zM1000 1130q128 0 238.5 -65.5t176 -176t65.5 -238.5t-65.5 -238.5t-176 -176t-238.5 -65.5t-238.5 65.5t-176 176t-65.5 238.5t65.5 238.5t176 176t238.5 65.5zM1000 280q156 0 263 109t107 261t-107 261t-263 109q-150 0 -260 -110 t-110 -260t110 -260t260 -110zM150 730h220q22 0 36 -14t14 -36t-14 -36t-36 -14h-220q-22 0 -36 14t-14 36t14 36t36 14zM1640 730h210q22 0 36 -14t14 -36t-14 -36t-36 -14h-210q-24 0 -42 14t-18 36t18 36t42 14zM1480 280l70 -80q15 -15 15 -35t-15 -35t-35 -15t-35 15 l-80 70q-32 48 0 80q15 15 40 15t40 -15zM450 170l70 80q48 32 80 0q15 -15 15 -40t-15 -40l-80 -70q-15 -15 -35 -15t-35 15t-15 35t15 35zM1000 70q22 0 36 -18t14 -42v-210q0 -22 -14 -36t-36 -14t-36 14t-14 36v210q0 24 14 42t36 18z" />
<glyph unicode="&#xe028;" d="M780 1470h120q256 -8 460.5 -167t279.5 -413q54 -211 -1.5 -418t-203.5 -360t-355 -212q-188 -44 -367.5 -10t-322.5 140l-90 80l40 10q225 59 384.5 220.5t217 379.5t-1.5 440q-38 154 -160 310zM1050 0q109 29 202.5 92t158.5 147.5t106.5 187t45.5 211.5t-23 222 q-59 207 -216.5 343.5t-363.5 166.5q60 -120 70 -180q37 -140 36 -275t-42 -263.5t-112 -238t-174 -198.5t-228 -145q122 -69 258.5 -87.5t281.5 17.5z" />
<glyph unicode="&#xe029;" d="M360 1220l-70 -70q-52 -60 -52 -144t52 -136l360 -360q25 -25 70 -40q0 -30 30 -60l50 -50q-60 -7 -117.5 14t-102.5 66l-360 360q-82 82 -82 206t82 214l70 70q90 90 215 90t215 -90l350 -350q90 -90 90 -215t-90 -215q-5 5 -15 20t-15 20l-40 30q60 60 60 145t-60 145 l-350 350q-60 60 -145 60t-145 -60zM1180 970l-50 50q60 7 117.5 -14t102.5 -66l360 -360q90 -83 90 -206.5t-90 -213.5l-70 -70q-90 -90 -215 -90t-215 90l-350 350q-90 90 -90 215t90 215h10q0 -9 8 -21t22 -19l30 -30q-60 -60 -60 -145t60 -145l350 -350q60 -60 145 -60 t145 60l70 70q60 60 60 140t-60 140l-360 360q-25 25 -70 40q0 30 -30 60z" />
<glyph unicode="&#xe030;" d="M1060 680l670 -660q15 -15 15 -35t-15 -35t-35 -15t-35 15l-670 660l-660 -660q-15 -15 -35 -15t-35 15t-15 35t15 35l660 660l-610 610q-15 15 -15 40t15 40q15 8 35 8t35 -8l610 -610l610 610q15 8 35 8t35 -8q15 -15 15 -40t-15 -40z" />
<glyph unicode="&#xe031;" d="M990 1520q30 0 50 -40l200 -560l600 -20q16 0 28 -8t12 -22q8 -15 1.5 -33.5t-21.5 -26.5l-470 -360l170 -580q0 -40 -20 -50q-10 -10 -30 -10t-30 10l-490 340l-500 -340q-10 -10 -30 -10t-20 10q-15 8 -21 21.5t1 28.5l170 580l-480 360q-20 40 -10 60q0 14 12 22t28 8 l600 20l200 560q20 40 50 40z" />
<glyph unicode="&#xe032;" d="M980 -90q780 0 780 780t-780 780t-780 -780t780 -780z" />
<glyph unicode="&#xe033;" d="M1700 1470v-1700h-1400v1700h700v-1270l200 230l200 -230v1270h300z" />
<glyph unicode="&#xe034;" d="M1720 -120l-540 540q-171 -140 -390 -140q-122 0 -233 47.5t-191.5 128t-128 191.5t-47.5 233t47.5 233t128 191.5t191.5 128t233 47.5t233 -47.5t191.5 -128t128 -191.5t47.5 -233q0 -219 -140 -390l540 -540zM290 880q0 -210 145 -355t355 -145t355 145t145 355 t-145 355t-355 145t-355 -145t-145 -355z" />
<glyph unicode="&#xe035;" d="M1000 1190q-138 0 -254 -71.5t-186 -188.5l-100 20q77 154 220.5 247t319.5 93q222 0 387 -143.5t203 -356.5h180l-250 -250l-250 250h220q-38 174 -174.5 287t-315.5 113zM1000 190q141 0 260 74.5t180 195.5l100 -30q-77 -154 -220.5 -247t-319.5 -93 q-222 0 -387 143.5t-203 356.5h-210l250 250l260 -250h-200q38 -174 174.5 -287t315.5 -113z" />
<glyph unicode="&#xe036;" d="M780 1020l70 70l500 -490l-500 -490l-70 70l420 420z" />
<glyph unicode="&#xe037;" d="M1900 1010v-100h-200v-200h-100v200h-200v100h200v200h100v-200h200zM950 910q132 0 253 -52.5t207.5 -140.5t138 -208t51.5 -249q0 -163 -75.5 -306t-204.5 -234q-15 -10 -40 -25t-40 -25h-10q-88 -44 -200 -60h-80q-105 0 -210 30q-20 10 -80 30v10q-13 4 -28 11.5 t-30.5 16.5t-21.5 12q-131 92 -205.5 231.5t-74.5 308.5q0 129 51.5 249t138 208t207.5 140.5t253 52.5zM1330 -140q78 79 124 181.5t46 218.5q0 147 -74.5 274t-201.5 201.5t-274 74.5t-274 -74.5t-201.5 -201.5t-74.5 -274q0 -116 46 -218.5t124 -181.5q35 24 104 50.5 t76 29.5q-56 49 -83 132.5t-27 167.5q0 80 19.5 151.5t50.5 118.5q82 140 230 140q166 0 250 -120q60 -72 60 -260q0 -232 -110 -330q11 -6 80 -31.5t110 -48.5zM950 -290q162 0 290 80q-10 5 -35 15t-35 15l-90 30l-20 10l-10 10q0 1 -10 23.5t-10 46.5q-7 14 3.5 33 t26.5 27q45 30 71.5 108.5t18.5 161.5q7 61 -7 116t-33 84q-27 41 -76 60.5t-94 19.5q-28 0 -41.5 -1.5t-32.5 -9.5t-36.5 -27t-39.5 -52q-18 -27 -34 -89.5t-16 -130.5q0 -165 90 -240q15 -7 27.5 -26t12.5 -34q-4 -22 -11.5 -39.5t-12.5 -24.5l-6 -6l-10 -20h-20 q-40 -10 -90 -30l-60 -30q128 -80 290 -80z" />
<glyph unicode="&#xe038;" d="M1780 810q16 -8 20 -27.5t-10 -42.5q-7 -14 -26 -16t-34 6q-80 60 -220 120q-260 120 -520 120q-270 0 -530 -120q-53 -27 -100.5 -57t-68.5 -47l-21 -16q-5 0 -15 -5t-15 -5q-10 0 -30 20q-15 15 -15 35t15 35q9 9 38.5 31.5t103 64t159.5 76.5t215 61.5t264 26.5 q123 0 249.5 -26t219.5 -62.5t168.5 -75.5t114 -65.5t38.5 -30.5zM1590 530q14 -14 16 -35t-6 -35q-28 -41 -70 -20q-50 50 -150 90q-180 90 -390 90q-228 0 -390 -90q-40 -18 -75 -38t-50 -31l-15 -11q-10 -10 -30 -10q-30 0 -40 10q-19 56 10 70q8 8 30.5 25t78 49 t120.5 58.5t162.5 47t198.5 20.5q92 0 187 -19.5t165 -47.5t126 -56t88.5 -47.5t33.5 -19.5zM1400 290q16 -16 20 -35t-10 -35q-8 -16 -26.5 -20t-33.5 10q-40 30 -110 50q-120 60 -250 60q-18 0 -35 -1t-34.5 -3.5t-30 -4t-30.5 -6t-26.5 -6t-27 -7.5t-22.5 -7.5t-23.5 -8 t-20.5 -6.5q-27 -13 -49.5 -28t-31.5 -24l-9 -8q-10 -10 -30 -10q-30 0 -40 20q-8 14 -6 35t16 35q6 5 17.5 14t51 31.5t83 39.5t111 31t137.5 14q64 0 130 -13.5t114 -32.5t87 -38t59 -32zM1210 50q16 -8 20 -31.5t-10 -38.5q-8 -16 -26.5 -20t-33.5 10q-20 10 -50 30 q-60 20 -120 20q-70 0 -110 -20l-40 -30q-10 -10 -30 -10t-40 20q-14 16 -10 35t20 35q9 8 26 19.5t71.5 31t112.5 19.5t113 -17.5t81 -34.5z" />
<glyph unicode="&#xe039;" d="M1760 1100q38 -45 38 -105t-38 -105l-860 -840q-50 -50 -110 -50t-110 50l-440 440q-38 38 -38 101.5t38 108.5q45 45 110 45t110 -45l330 -340l750 740q45 45 110 45t110 -45zM830 110l850 850q15 15 15 35t-15 35t-35 15t-35 -15l-810 -820l-410 420q-48 32 -80 0 q-15 -15 -15 -35t15 -35l450 -450q15 -15 35 -15t35 15z" />
<glyph unicode="&#xe040;" d="M1210 640l500 -490q38 -45 38 -108.5t-38 -101.5q-45 -45 -110 -45t-110 45l-490 490l-490 -490q-45 -45 -110 -45t-110 45q-38 38 -38 101.5t38 108.5l500 490l-500 500q-38 38 -38 101.5t38 108.5q45 45 110 45t110 -45l490 -500l490 500q45 45 110 45t110 -45 q38 -45 38 -108.5t-38 -101.5zM1640 10q8 15 8 35t-8 35l-570 570l570 570q8 15 8 35t-8 35q-15 15 -40 15t-40 -15l-560 -570l-570 570q-15 15 -40 15t-40 -15q-8 -15 -8 -35t8 -35l570 -570l-560 -570q-15 -15 -15 -35t15 -35q8 -15 31.5 -15t38.5 15l570 570l560 -570 q15 -15 40 -15t40 15z" />
<glyph unicode="&#xe041;" d="M990 -200q21 0 58.5 5t51.5 5q120 13 270 80h10q20 10 60 35t60 35q174 129 272 317t98 403q0 177 -69 338t-186.5 277.5t-281 185.5t-343.5 69q-177 0 -338 -69t-277.5 -185.5t-185.5 -277.5t-69 -338q0 -218 100.5 -409t279.5 -311q60 -40 100 -60l10 -10q20 -5 55 -20 t55 -20q150 -50 270 -50zM980 1200h-20q-172 0 -280 -180q-74 -118 -90 -360q16 -281 150 -400q10 -10 10 -30q0 -4 -2.5 -7t-8 -6t-9.5 -7q-45 -9 -115.5 -39t-124.5 -71h-20q-10 0 -10 10q-121 113 -185.5 259.5t-64.5 310.5q0 158 62 302.5t166.5 249t249 166.5t302.5 62 q162 0 308.5 -62t252 -166.5t167.5 -248.5t62 -303q0 -164 -64.5 -310.5t-185.5 -259.5l-10 -10h-20q-54 40 -128 70t-122 40q-4 4 -9.5 7t-8 6t-2.5 7q0 20 10 30q82 75 116 194.5t34 245.5q0 228 -80 340q-39 49 -88.5 83.5t-97 49.5t-81.5 21t-63 6zM810 150l20 10l10 25 q10 25 10 55q0 40 -30 70q-67 45 -103.5 137t-36.5 213q0 92 22.5 184.5t47.5 125.5q22 32 40 54.5t38 37.5t31 23t35 13.5t33.5 6.5t42.5 5h10q22 0 48 -4t65.5 -14.5t79 -37t67.5 -64.5q29 -36 44.5 -116t15.5 -174q0 -126 -35 -237t-105 -153q-40 -27 -40 -70 q17 -67 30 -80l10 -10l20 -10q60 -10 130 -40q15 -5 50 -20t50 -20q10 -10 10 -30q0 -10 -10 -20q-180 -120 -420 -120q-230 0 -410 120q-20 20 -20 30l20 20q15 5 45 20t45 20q31 13 63.5 23t49.5 13l17 4z" />
<glyph unicode="&#xe042;" d="M1000 80h40q22 0 36 -14t14 -36t-14 -36t-36 -14h-200q-22 0 -36 14t-14 36t14 36t36 14h50l-100 300h-380l-110 -300h50q22 0 36 -14t14 -36t-14 -36t-36 -14h-200q-22 0 -36 14t-14 36t14 36t36 14h50l350 1010q0 30 30 30h10h10h10q30 0 30 -30zM1400 1020h-500v100 h500v-100zM750 480l-150 440l-160 -440h310zM1800 80h50q22 0 36 -14t14 -36t-14 -36t-36 -14h-100q-22 0 -36 14t-14 36v20q-88 -70 -200 -70q-127 0 -213.5 72.5t-86.5 177.5t86.5 177.5t213.5 72.5q125 0 200 -60v60q0 82 -59 141t-141 59q-98 0 -170 -90 q-20 -20 -40 -20q-22 0 -36 14t-14 36q0 8 6.5 19t13.5 11q38 60 101.5 95t138.5 35q128 0 214 -86t86 -214v-400zM1500 80q82 0 141 45t59 105t-59 105t-141 45t-141 -45t-59 -105t59 -105t141 -45z" />
<glyph unicode="&#xe043;" d="M1090 810v200h-200v100h200v200h100v-200h200v-100h-200v-200h-100zM990 70h40q21 0 35.5 -16.5t14.5 -33.5q0 -22 -14 -36t-36 -14h-200q-22 0 -36 14t-14 36q0 17 14.5 33.5t35.5 16.5h50l-100 300h-380l-110 -300h50q21 0 35.5 -16.5t14.5 -33.5q0 -22 -14 -36 t-36 -14h-200q-22 0 -36 14t-14 36q0 17 14.5 33.5t35.5 16.5h50l350 1000v10q0 15 30 30h10h10h10q30 -15 30 -30v-10zM740 470l-150 440l-160 -440h310zM1790 70h50q21 0 35.5 -16.5t14.5 -33.5q0 -22 -14 -36t-36 -14h-100q-22 0 -36 14t-14 36v10q-75 -60 -200 -60 q-127 0 -213.5 72.5t-86.5 177.5t86.5 177.5t213.5 72.5q112 0 200 -70v70q0 82 -59 141t-141 59q-103 0 -170 -100q-20 -10 -40 -10q-22 0 -36 14t-14 36q0 10 20 30q38 60 101.5 95t138.5 35q126 0 213 -89t87 -211v-400zM1490 70q84 0 142 42t58 108q0 60 -59 105 t-141 45t-141 -45t-59 -105q0 -66 58 -108t142 -42z" />
<glyph unicode="&#xe044;" d="M90 1600h50v-1700h-50v1700zM750 1330h670l-150 150v60l240 -240l-240 -230v60l150 150h-670v50zM1880 450q1 -6 3 -26l2.5 -25t2 -22t2 -23t0.5 -20t-1 -20.5t-2 -18t-3.5 -19.5t-6 -17.5t-7.5 -18.5q-22 -45 -72 -95t-148 -125q-66 -52 -123 -80.5t-98.5 -37.5 t-88.5 0.5t-79 23t-84 40.5q-18 9 -27 14q-67 31 -139.5 81t-111.5 85l-39 34q-113 141 -80 240q24 84 70 130l-340 480h-60q-97 0 -163.5 71t-66.5 169t66 164t164 66t169 -66.5t71 -163.5q0 -30 -20 -90q38 -55 140 -182.5t140 -177.5q0 26 1 38.5t8 30t21 31.5 q33 23 64.5 25t51 -7t44.5 -28l40 -30l50 50q30 30 86 36t94 -16q0 10 40 50q28 23 60.5 22.5t52.5 -11.5t47 -31q47 -35 90 -100q0 -1 15 -22t28 -40.5t33 -52.5t35.5 -67.5t31.5 -75t25.5 -85t11.5 -87.5zM470 1080l-40 50q-20 30 -40 70q-47 94 10 140q59 44 110 10 q18 -9 31.5 -20.5t33 -32.5t25.5 -27l40 -50v50q0 77 -54.5 133.5t-135.5 56.5q-75 0 -132.5 -57.5t-57.5 -132.5q0 -81 56.5 -135.5t133.5 -54.5h20zM1830 260q15 36 16.5 76t-6.5 114q-2 39 -11 80t-24 78t-29.5 69t-33.5 63.5t-31 49.5t-27 39l-14 21q-15 23 -41.5 49 t-48.5 41q-60 45 -90 30q-18 -13 -30.5 -25.5t-15.5 -18.5l-4 -6l-10 -20q-15 -15 -30 0q-10 10 -30 20q-31 8 -55.5 3.5t-39.5 -13.5l-15 -10l-80 -80q-30 30 -60 50q-41 31 -55 34q-21 4 -45 -14q-27 -18 -29.5 -55.5t8.5 -66.5l11 -28l-10 -20h-20q-360 440 -410 510 q-23 32 -35.5 47t-30 28.5t-35 11.5t-39.5 -17q-10 -10 -11.5 -29t11.5 -51l40 -60l580 -820q15 -15 0 -30q-20 0 -30 10l-140 200l-10 -10l-50 -100q-14 -41 9.5 -97.5t60.5 -102.5q16 -15 43 -38t101 -74t136 -78q21 -10 58 -28.5t52.5 -26t45.5 -18t48.5 -9.5t48.5 5 t58.5 19t66 39t82.5 59q98 75 141.5 118.5t58.5 81.5z" />
<glyph unicode="&#xe045;" d="M710 1330h670l-150 150v60l240 -240l-240 -230v60l150 150h-670v50zM1840 450q1 -6 3 -26l2.5 -25t2 -22t2 -23t0.5 -20t-1 -20.5t-2 -18t-3.5 -19.5t-6 -17.5t-7.5 -18.5q-22 -45 -72.5 -95t-147.5 -125q-66 -52 -123 -80.5t-98.5 -37.5t-88.5 0.5t-79 23t-84 40.5 q-18 9 -27 14q-67 31 -139.5 81t-111.5 85l-39 34q-113 141 -80 240q24 84 70 130l-340 480h-60q-97 0 -163.5 71t-66.5 169t66 164t164 66t169 -66.5t71 -163.5q0 -30 -20 -90q38 -55 140 -182.5t140 -177.5q0 26 1 38.5t8 30t21 31.5q33 23 64.5 25t51 -7t44.5 -28l40 -30 l50 50q30 30 86 36t94 -16q0 10 40 50q28 23 60.5 22.5t52.5 -11.5t47 -31q47 -35 90 -100q0 -1 15 -22t28 -40.5t33 -52.5t35.5 -67.5t31.5 -75t25.5 -85t11.5 -87.5zM430 1080l-40 50q-20 30 -40 70q-47 94 10 140q59 44 110 10q18 -9 31.5 -20.5t33 -32.5t25.5 -27 l40 -50v50q0 77 -54.5 133.5t-135.5 56.5q-75 0 -132.5 -57.5t-57.5 -132.5q0 -81 56.5 -135.5t133.5 -54.5h20zM1790 260q15 36 16.5 76t-6.5 114q-2 39 -11 80t-24 78t-29.5 69t-33.5 63.5t-31 49.5t-27 39l-14 21q-15 23 -41 49t-49 41q-60 45 -90 30 q-18 -13 -30.5 -25.5t-15.5 -18.5l-4 -6l-10 -20q-15 -15 -30 0q-10 10 -30 20q-31 8 -55.5 3.5t-39.5 -13.5l-15 -10l-80 -80q-30 30 -60 50q-41 31 -55 34q-20 5 -45 -14q-27 -18 -29.5 -55.5t8.5 -66.5l11 -28l-10 -20h-20q-360 440 -410 510q-23 32 -35.5 47t-30 28.5 t-35 11.5t-39.5 -17q-10 -10 -11.5 -29t11.5 -51l40 -60l580 -820q15 -15 0 -30q-20 0 -30 10l-140 200l-10 -10l-50 -100q-14 -41 9.5 -97.5t60.5 -102.5q16 -15 43 -38t101 -74t136 -78q21 -10 58 -28.5t52.5 -26t45.5 -18t48.5 -9.5t48.5 5t58.5 19t66 39t82.5 59 q98 75 141.5 118.5t58.5 81.5z" />
<glyph unicode="&#xe046;" d="M760 -130q-6 -1 -26 -3l-25 -2.5t-22 -2t-23 -2t-20 -0.5t-20.5 1t-18 2t-19.5 3.5t-17.5 6t-18.5 7.5q-45 22 -95 72.5t-125 147.5q-52 66 -80.5 123t-37.5 98.5t0.5 88.5t23 79t40.5 84q9 18 14 27q31 67 81 139.5t85 111.5l34 39q141 113 240 80q84 -24 130 -70 l480 340v60q0 97 71 163.5t169 66.5t164 -66t66 -164t-66.5 -169t-163.5 -71q-30 0 -90 20q-55 -38 -182.5 -140.5t-177.5 -139.5q26 0 38.5 -1t30 -8t31.5 -21q23 -33 25 -64.5t-7 -51t-28 -44.5l-30 -40l50 -50q30 -30 36 -86t-16 -94q10 0 50 -40q23 -28 22.5 -60.5 t-11.5 -52.5t-31 -47q-35 -47 -100 -90q-1 0 -22 -15t-40.5 -28t-52.5 -33t-67.5 -35.5t-75 -31.5t-85 -25.5t-87.5 -11.5zM1260 1270h-670l150 -150v-60l-240 240l240 230v-60l-150 -150h670v-50zM1390 1280l50 40q30 20 70 40q94 47 140 -10q44 -59 10 -110 q-9 -18 -20.5 -31.5t-32.5 -33t-27 -25.5l-50 -40h50q77 0 133.5 54.5t56.5 135.5q0 75 -57.5 132.5t-132.5 57.5q-81 0 -135.5 -56.5t-54.5 -133.5v-20zM570 -80q36 -15 76 -16.5t114 6.5q39 2 80 11t78 24t69 29.5t63.5 33.5t49.5 31t39 27l21 14q22 15 48.5 41.5 t41.5 48.5q45 60 30 90q-13 18 -25.5 30.5t-18.5 15.5l-6 4l-20 10q-15 15 0 30q10 10 20 30q8 31 3.5 55.5t-13.5 39.5l-10 15l-80 80q30 30 50 60q31 41 34 55q4 21 -14 45q-18 27 -55.5 29.5t-66.5 -8.5l-28 -11l-20 10v20q440 360 510 410q32 23 47 35.5t28.5 30 t11.5 35t-17 39.5q-10 10 -29 11.5t-51 -11.5l-60 -40l-820 -580q-15 -15 -30 0q0 20 10 30l200 140l-10 10l-100 50q-41 14 -97.5 -9.5t-102.5 -60.5q-15 -16 -38 -43t-74 -101t-78 -136q-10 -21 -28.5 -58t-26 -52.5t-18 -45.5t-9.5 -48.5t5 -48.5t19 -58.5t39 -66 t59 -82.5q75 -98 118.5 -141.5t81.5 -58.5z" />
<glyph unicode="&#xe047;" d="M1700 1490v-1600h-1400v1600h1400zM1600 1400h-1200v-1420h1200v1420zM1400 1090h-900v100h900v-100zM1500 790h-1000v100h1000v-100zM1200 490h-700v100h700v-100zM1300 190h-800v100h800v-100z" />
<glyph unicode="&#xe048;" d="M1590 1000h200v40h-200v200h-40v-200h-200v-40h200v-200h40v200zM870 -300h80q82 14 190 60q15 10 45 25t45 25q121 91 190.5 226t69.5 284q0 167 -83.5 310t-226.5 226.5t-310 83.5t-310 -83.5t-226.5 -226.5t-83.5 -310q0 -150 71.5 -285t198.5 -225q20 -20 80 -50 q10 -5 35 -15t35 -15q105 -30 200 -30zM860 680h-10q-86 0 -146.5 -54t-87 -135.5t-26.5 -180.5q0 -190 100 -290l40 -30l-50 -20q-60 -15 -170 -70l-20 -20l-20 20q-89 81 -134.5 189.5t-45.5 230.5q0 118 46 225.5t123.5 185t185 123.5t225.5 46t225.5 -46t185 -123.5 t123.5 -185t46 -225.5t-48 -227t-132 -193l-20 -20l-20 10q-84 56 -180 80l-60 20l50 30q100 100 100 320q0 147 -50 230q-24 35 -58.5 59t-69 34t-58 13.5t-44.5 3.5zM730 -60q7 2 17 6.5t26.5 17.5t16.5 26q0 7 -21.5 24.5t-38.5 25.5q-46 38 -73 109.5t-27 160.5 q0 95 21 166.5t71.5 117.5t127.5 46h10q130 0 200 -90q35 -50 43 -156t-19 -211t-84 -143q-8 -4 -19.5 -12.5t-22 -17.5t-16.5 -17.5t-2 -12.5q0 -9 15 -19t30 -15l15 -6q50 -10 100 -30q15 -5 40 -15t40 -15l40 -20l-40 -30q-135 -90 -310 -90t-310 90l-40 30l40 20 q30 10 70 30q22 9 47 16.5t39 10.5z" />
<glyph unicode="&#xe049;" d="M1770 770q25 -101 38.5 -195.5t14.5 -158t-1.5 -112t-7.5 -71.5l-4 -23q-14 -85 -60 -100h-420v-130q0 -70 -45 -115t-125 -45h-300q-68 0 -119 51t-51 119v120h-380q-33 5 -52.5 14t-25 16t-12.5 20l-80 350q-7 29 10.5 50.5t49.5 29.5l1260 730h10q11 0 22 -6t17 -11.5 t20.5 -21t20.5 -21.5q11 -11 19.5 -20.5t38.5 -52.5t54 -92t55 -136.5t53 -188.5zM1770 210q6 17 11 54.5t8 105.5t-9 171.5t-40 218.5q-25 95 -56 177.5t-57 133t-48.5 87t-35.5 53.5t-13 19l-40 40l-20 10l-20 -10l-1230 -710q-5 -2 -10.5 -4.5t-8.5 -4l-6 -3t-4 -3.5 t-1 -5l-10 -10v-20l80 -330v-20h20q4 0 16.5 -5t23.5 -5h1430l10 20q0 5 5 20t5 20zM1290 110h-560v-120q0 -52 39 -91t91 -39h300q58 0 94 36t36 84v130z" />
<glyph unicode="&#xe050;" d="M1610 -160l10 1420v70h-1240v-1560h1240zM1030 1290v-1060l170 170l170 -170v1060h210v-1480h-1160v1480h610zM1070 330v960h260v-960l-130 130z" />
<glyph unicode="&#xe051;" d="M210 1270h1750q54 0 92 -36t38 -94v-1000q0 -53 -39 -96.5t-91 -43.5h-1500q20 40 20 70h1480q23 0 41.5 20.5t18.5 49.5v1000q0 29 -18.5 49.5t-41.5 20.5h-1750q-24 0 -47 -21t-23 -49h-60q0 58 38 94t92 36zM-50 1080h330q52 0 96 -44t44 -96v-870q0 -58 -42.5 -94 t-97.5 -36h-330q-61 0 -100.5 35.5t-39.5 94.5v870q0 54 41 97t99 43zM350 70v870q0 30 -20 50t-50 20h-330q-30 0 -50 -20t-20 -50v-870q0 -30 20 -50t50 -20h330q30 0 50 20t20 50z" />
<glyph unicode="&#xe052;" d="M1610 860q-15 142 -103 262.5t-221 189t-276 68.5q-148 0 -283 -69t-223.5 -189t-103.5 -262q47 -31 83.5 -90t36.5 -110l30 -230q85 70 210.5 115t249.5 45t249.5 -45t210.5 -115l20 230zM460 -100q27 0 41 4t19 16.5t5 24t-2.5 38.5t-2.5 47l-60 560q0 92 -62 156 t-158 64q-90 0 -155 -65t-65 -155q0 -88 63 -155t147 -75l140 -340q0 -34 1 -48t5 -32t13.5 -24.5t26.5 -11t44 -4.5zM1630 20l140 340q91 8 155.5 74.5t64.5 155.5q0 91 -66.5 155.5t-163.5 64.5q-90 0 -155 -65t-65 -155l-60 -560q0 -15 -1 -40t-1 -34.5t3 -23.5t10.5 -19 t22 -9t36.5 -4q14 0 24.5 1t18.5 2.5t14 6t10 7t6.5 10.5t4 12t2 16t0.5 18v22v25zM1430 120l20 210q-78 78 -195 124t-255 46q-131 0 -247.5 -46t-202.5 -124l30 -210h850z" />
<glyph unicode="&#xe053;" d="M250 1110q0 -30 -20 -30q-20 10 -20 30q0 9 5 16.5t10 10.5l5 3q20 -10 20 -30zM1720 1060q-9 0 -16.5 5t-10.5 10l-3 5q2 2 5.5 4.5t12.5 7t12 -1.5q9 0 16.5 -2.5t10.5 -5.5l3 -2q-10 20 -10 30q0 9 5 16.5t10 10.5l5 3q10 -10 10 -30q0 -9 -2.5 -16.5t-5.5 -10.5 l-2 -3q0 -10 20 -30q-10 10 -10 20q4 9 11.5 16.5t12.5 10.5l6 3q10 -20 10 -40q0 -5 -10 -15t-10 -15q0 -4 5 -11.5t5 -18.5v30q4 9 11.5 16.5t12.5 10.5l6 3q2 -2 4.5 -6t7 -15t-1.5 -19q-4 -9 -11.5 -16.5t-12.5 -10.5l-6 -3q0 -10 5 -25t5 -25q0 11 -5 23.5t-5 16.5 q-3 0 -12 -2t-16.5 -2t-11.5 4q-9 4 -16.5 11.5t-10.5 12.5l-3 6q20 10 40 10l20 -20q-5 5 -10 15t-10 15q-20 -10 -30 -10q-9 4 -19 11.5t-15 12.5l-6 6q20 10 40 10q5 -5 15 -10t15 -10q-6 6 -11.5 12.5t-7.5 10t-4.5 5.5t-6.5 2q-20 -10 -30 -10zM270 1040 q-10 -20 -30 -20q-11 0 -23.5 5t-16.5 5q0 5 -10 15t-10 15q-4 10 -2 19t7 15l5 6q20 -10 20 -30v-20q20 20 20 30q5 0 15 5t15 5q9 0 19 -2.5t15 -5.5l6 -2q-20 -20 -30 -20q-9 0 -16.5 2.5t-10.5 5.5l-3 2q-15 0 -30 -30l20 20q9 0 19 -5t15 -10zM220 980q-9 -4 -16.5 -4 t-14 2t-9.5 2q-3 1 -8 3.5t-13.5 13t-8.5 23.5q-4 9 -4 19t2 15l2 6q30 -10 30 -30q4 -4 4 -11.5t-2 -16.5t-2 -12q4 7 7 16t6 14.5t7 9.5q0 -5 -5 -15t-5 -15q0 10 20 10q9 4 19 4t15 -2l6 -2q-10 -30 -30 -30zM200 860q-9 -4 -19 -4t-19 2t-12 2q-10 0 -26.5 8.5 t-23.5 21.5q-4 9 -6.5 21.5t-3.5 20.5v8q40 0 50 -20q4 -4 6.5 -11.5t3.5 -12.5v-6q0 20 10 40q-30 0 -40 30q-4 9 -4 21.5t2 20.5l2 8q30 -10 40 -40v-30q4 7 7 16t6 14.5t7 9.5q-10 -10 -10 -40q0 8 6 14t14 6q9 4 21.5 4t20.5 -2l8 -2q-10 -30 -30 -40h-50q0 -5 -5 -20 t-5 -20q3 3 7 9.5t9 11.5t14 9t21.5 4t20.5 -2l8 -2q0 -30 -30 -50zM1800 960q8 0 14 -6t6 -14q0 20 10 40q4 9 11.5 16.5t12.5 10.5l6 3q2 -3 4.5 -8.5t7 -20t-1.5 -21.5q-4 -9 -14 -16.5t-18 -10.5l-8 -3q-10 -10 -50 -10q-9 4 -16.5 14t-10.5 18l-3 8q30 10 50 0z M1810 910l30 -30q-10 10 -10 50q0 -11 5 -23.5t5 -16.5q0 20 10 30q4 9 14 16.5t18 10.5l8 3q10 -40 0 -60q-30 -30 -50 -30q-2 0 -10.5 -1t-15 -1.5t-14 2.5t-10.5 10q-13 4 -20.5 14t-8.5 18l-1 8q30 10 50 0zM140 710v10v70q-40 0 -60 20q-4 13 -6.5 28t-3.5 24v8 q40 0 60 -20q10 -20 10 -60q0 50 10 70v-50q0 8 6.5 19t13.5 11q9 9 21.5 14t20.5 6h8q0 -40 -20 -60q-20 -10 -50 -10v-50q0 20 10 30q13 9 28 14t24 6h8q10 -40 -20 -60q-6 -12 -26.5 -19.5t-23.5 -10.5v-10q0 10 -10 10q-40 0 -60 20q-9 13 -14 30.5t-6 28.5v11 q40 0 60 -20t20 -60zM1820 840q7 0 13.5 -11t6.5 -19v50q0 -10 5 -30t5 -30v-10q0 40 10 60q9 9 21.5 14t20.5 6h8q10 -30 -10 -60q-9 -9 -21.5 -14t-20.5 -6h-8q0 -50 -10 -70v-10q-40 0 -60 20q-9 9 -14 24t-6 26v10q40 0 60 -20t20 -30v50q-30 0 -50 10q-13 9 -20.5 24 t-8.5 26l-1 10q40 0 60 -20zM1910 730q-13 -13 -30.5 -18t-28.5 -4l-11 2q0 9 8 27.5t22 32.5q9 9 24 14t26 6h10q0 -40 -20 -60zM310 500q-14 -42 -50 -60h-10q0 10 -10 20q-20 40 -40 60q-2 0 -14.5 -2t-27.5 -2t-28 4q-18 9 -30.5 26.5t-15.5 30.5l-4 13q40 10 80 0 l20 -20q-5 5 -10 20t-10 20q-40 -10 -70 20q-13 9 -20.5 24t-8.5 26l-1 10q40 10 70 -10q20 -20 20 -30v30q0 -4 5 -16.5t5 -23.5q0 20 20 40q9 13 24 23t26 13l10 4q10 -50 -10 -80q-11 -11 -33.5 -18.5t-26.5 -11.5q5 -10 15 -35t15 -35q0 2 -2 14.5t-2 24.5t4 21 q9 18 24 30.5t26 15.5l10 4q2 -4 4.5 -11.5t7 -30t-1.5 -38.5q-13 -20 -31.5 -30t-28.5 -10l30 -60q0 7 -2 16.5t-2 17t4 16.5q4 18 19 33t28 21l13 6q1 -2 3 -4.5t6 -12t6 -18.5t1.5 -21.5t-6.5 -23.5zM1900 630q-13 -13 -30.5 -18t-28.5 -4l-11 2h-10q-7 3 -19 7t-22 9 t-19 14q-9 13 -11.5 33t-0.5 33l2 14q40 -10 60 -30q3 -5 7.5 -13t6.5 -12.5t4 -11t2 -13.5q0 30 10 40q0 -10 -5 -30t-5 -30q0 9 8 27.5t22 32.5q13 9 30.5 11.5t28.5 0.5l11 -2q0 -40 -30 -60zM1840 690v-10v10zM150 680v10v-10zM1790 540q5 10 15 35t15 35q0 -5 -5 -20 t-5 -20q0 4 2.5 7t8 6t9.5 7q18 4 38 4t31 -2l11 -2q-10 -50 -50 -70q-16 -5 -31.5 -4t-27 5t-11.5 9q-20 -20 -40 -60l30 60q-11 0 -29 12t-31 38q-9 13 -9 30.5t5 28.5l4 11q50 -10 60 -40q9 -14 11.5 -25t0.5 -26.5t-2 -18.5zM1690 580q40 -20 60 -60v-50l-10 -10v-20 q0 17 16 35t44 25q18 4 38 -1t31 -12l11 -7q-20 -40 -60 -60q-18 -4 -40.5 1t-35.5 12l-14 7q-48 24 -60 60q-4 18 1 38t12 31zM300 450q4 18 16.5 35.5t23.5 26.5l10 8q4 -4 10.5 -12.5t15 -32t4.5 -45.5q-10 -30 -50 -70l10 -10h-10l-10 10q-9 -9 -36 -19.5t-54 -10.5 q-18 4 -35.5 19t-26.5 28l-8 13q40 30 90 30q5 -5 20 -10t20 -10q-20 20 -30 40q40 -40 50 -60q-20 40 -10 70zM1690 450q0 -50 -10 -70q10 20 50 60q-10 -20 -30 -40q4 4 9.5 7t14.5 6t16 7q18 0 40.5 -7.5t35.5 -14.5l14 -8q-3 -6 -9.5 -14.5t-27.5 -25t-43 -20.5 q-28 0 -54 11t-26 19q-4 -4 -9 -6.5t-8 -3.5h-3q0 10 10 10q-1 1 -8.5 8t-13.5 13t-13 14t-11 17.5t-4 17.5q-4 22 1 44.5t12 33.5l7 12q50 -30 60 -70zM190 500q36 -12 60 -60q-4 -3 -12 -8t-29 -10.5t-39 -1.5q-18 9 -33 24t-21 26l-6 10q4 3 12 8t29 10.5t39 1.5z" />
</font>
</defs>
</svg>
