<?xml version="1.0" encoding="utf-8"?>
<!-- Generator: Adobe Illustrator 13.0.1, SVG Export Plug-In  -->
<!DOCTYPE svg PUBLIC "-//W3C//DTD SVG 1.1//EN" "http://www.w3.org/Graphics/SVG/1.1/DTD/svg11.dtd" [
	<!ENTITY ns_flows "http://ns.adobe.com/Flows/1.0/">
]>
<svg version="1.1"
	 xmlns="http://www.w3.org/2000/svg" xmlns:xlink="http://www.w3.org/1999/xlink" xmlns:a="http://ns.adobe.com/AdobeSVGViewerExtensions/3.0/"
	 x="0px" y="0px" width="100px" height="100px" viewBox="-6.951 -7.78 100 100" enable-background="new -6.951 -7.78 100 100"
	 xml:space="preserve">
<defs>
</defs>
<path d="M34.083,84.648c-3.624,0-7.263-0.591-10.784-1.766c-1.472-0.505-2.889-1.085-4.252-1.766
	c-1.772-0.882-3.104-1.671-4.38-2.546C5.486,72.199,0,61.721,0,50.564c0-18.789,15.289-34.068,34.083-34.068
	c18.792,0,34.069,15.279,34.069,34.068c0,11.075-5.42,21.495-14.504,27.883c-1.439,0.999-2.91,1.869-4.574,2.701
	c-3.748,1.776-7.257,2.792-10.854,3.227C36.827,84.547,35.474,84.648,34.083,84.648L34.083,84.648z M26.154,71.275
	c-0.011,0-2.308,0.613-5.057,1.665c-1.278,0.466-2.647,1.078-3.875,1.707l-2.566,1.326l2.436,1.535
	c5.101,3.242,10.984,4.949,16.991,4.949c5.984,0,11.835-1.696,16.935-4.912l2.469-1.562l-2.609-1.299
	c-1.299-0.65-2.746-1.278-4.1-1.744c-2.898-1.063-5.369-1.665-5.369-1.665s-3.694-0.687-3.747-2.088
	c-0.033-0.618,2.566-2.909,3.36-3.397c4.177-2.599,6.013-10.174,5.958-16.122c0.055-4.756-1.115-9.867-2.717-11.858
	c-3.371-4.644-9.155-5.02-10.84-5.02h-0.048L33.1,32.811c-3.553,0.183-5.571,0.527-9.212,5.648c-1.4,1.959-2.899,7.387-2.839,12.761
	c-0.031,6.636,2.045,12.105,5.557,14.58c0.772,0.559,3.28,2.352,3.243,3.044C29.793,70.325,26.154,71.275,26.154,71.275
	L26.154,71.275z M32.844,30.589h0.51c2.539,0.011,8.71,0.596,12.725,5.986c1.955,2.759,3.029,7.311,3.094,13.125
	c-0.064,5.498-1.139,12.954-5.949,17.146l-2.276,1.997l2.909,0.832c2.309,0.661,6.689,2.099,10.051,4.253l1.084,0.696l0.936-0.891
	c6.463-6.087,10.039-14.307,10.039-23.17c0-17.581-14.303-31.877-31.882-31.877c-17.582,0-31.893,14.296-31.893,31.877
	c0,8.826,3.559,17.051,10.012,23.148l0.935,0.892l1.094-0.709c3.28-2.132,7.414-3.57,9.578-4.23l2.808-0.854l-2.191-1.948
	c-3.65-3.265-5.529-8.542-5.562-15.681c0.042-5.782,1.192-10.867,3.178-13.921C25.51,31.743,29.815,30.589,32.844,30.589
	L32.844,30.589z M73.65,24.185h-2.191v-9.341V13.19h-1.652h-9.34v-2.201h9.34h1.652V9.335V0h2.191v9.335v1.653h1.654h9.342v2.201
	h-9.342H73.65v1.653V24.185L73.65,24.185z"/>
</svg>
