<?xml version="1.0" encoding="utf-8"?>
<!-- Generator: Adobe Illustrator 13.0.1, SVG Export Plug-In  -->
<!DOCTYPE svg PUBLIC "-//W3C//DTD SVG 1.1//EN" "http://www.w3.org/Graphics/SVG/1.1/DTD/svg11.dtd" [
	<!ENTITY ns_flows "http://ns.adobe.com/Flows/1.0/">
]>
<svg version="1.1"
	 xmlns="http://www.w3.org/2000/svg" xmlns:xlink="http://www.w3.org/1999/xlink" xmlns:a="http://ns.adobe.com/AdobeSVGViewerExtensions/3.0/"
	 x="0px" y="0px" width="100px" height="100px" viewBox="-5.1 -23 100 100" enable-background="new -5.1 -23 100 100"
	 xml:space="preserve">
<defs>
</defs>
<path fill="#FFFFFF" d="M18.406,7.889H5.259C2.354,7.889,0,10.243,0,13.147v34.182c0,2.905,2.354,5.259,5.259,5.259h13.147
	c2.904,0,5.259-2.354,5.259-5.259V13.147C23.665,10.243,21.311,7.889,18.406,7.889z M21.036,47.329c0,1.453-1.178,2.63-2.629,2.63
	H5.259c-1.452,0-2.629-1.177-2.629-2.63V13.147c0-1.453,1.178-2.629,2.629-2.629h13.147c1.452,0,2.629,1.176,2.629,2.629V47.329z
	 M84.142,0H15.776c-2.904,0-5.258,2.354-5.258,5.258h2.629c0-1.453,1.178-2.629,2.629-2.629h68.365c1.453,0,2.63,1.176,2.63,2.629
	V44.7c0,1.453-1.177,2.629-2.63,2.629H26.294c0,0.963-0.277,1.854-0.729,2.63h58.576c2.903,0,5.259-2.354,5.259-5.259V5.258
	C89.4,2.354,87.045,0,84.142,0z"/>
</svg>
