<?xml version="1.0" encoding="utf-8"?>
<!-- Generator: Adobe Illustrator 13.0.1, SVG Export Plug-In  -->
<!DOCTYPE svg PUBLIC "-//W3C//DTD SVG 1.1//EN" "http://www.w3.org/Graphics/SVG/1.1/DTD/svg11.dtd" [
	<!ENTITY ns_flows "http://ns.adobe.com/Flows/1.0/">
]>
<svg version="1.1"
	 xmlns="http://www.w3.org/2000/svg" xmlns:xlink="http://www.w3.org/1999/xlink" xmlns:a="http://ns.adobe.com/AdobeSVGViewerExtensions/3.0/"
	 x="0px" y="0px" width="100px" height="100px" viewBox="-16.428 -10.801 100 100" enable-background="new -16.428 -10.801 100 100"
	 xml:space="preserve">
<defs>
</defs>
<path fill="#020202" d="M62.722,76.949H0v-3.294L0.128,3.281L0.041,0h62.717v3.281L62.63,73.655L62.722,76.949L62.722,76.949z
	 M1.764,1.879v1.402v70.375v1.406h1.402h56.43h1.402v-1.406V3.281V1.879h-1.402h-9.378h-1.402v1.402v52.909l-7-6.982l-0.99-0.994
	l-0.998,0.994l-6.983,6.982V3.281V1.879h-1.402H3.166H1.764L1.764,1.879z M40.825,45.556l3.702,3.702l2.392,2.405v-3.4V3.281V1.879
	h-1.402h-9.374H34.74v1.402v44.982v3.4l2.392-2.405L40.825,45.556L40.825,45.556z"/>
</svg>
