<?xml version="1.0" encoding="utf-8"?>
<!-- Generator: Adobe Illustrator 13.0.1, SVG Export Plug-In  -->
<!DOCTYPE svg PUBLIC "-//W3C//DTD SVG 1.1//EN" "http://www.w3.org/Graphics/SVG/1.1/DTD/svg11.dtd" [
	<!ENTITY ns_flows "http://ns.adobe.com/Flows/1.0/">
]>
<svg version="1.1"
	 xmlns="http://www.w3.org/2000/svg" xmlns:xlink="http://www.w3.org/1999/xlink" xmlns:a="http://ns.adobe.com/AdobeSVGViewerExtensions/3.0/"
	 x="0px" y="0px" width="100px" height="100px" viewBox="-9.67 -13.776 100 100" enable-background="new -9.67 -13.776 100 100"
	 xml:space="preserve">
<defs>
</defs>
<path d="M47.335,69.807h-0.109L33.32,69.635c-4.346-0.059-7.841-3.636-7.784-7.974l0.06-4.336l0.018-1.414h-1.412L8.024,55.897
	c-3.269-0.104-3.993-1.24-4.26-2.326L0.079,37.606c-0.43-1.748,0.964-3.337,2.581-4.002L61.145,0
	c-0.082,0.05-0.027,0.059,0.062,0.059c0.073,0,0.155,0,0.245,0c1.376,0,2.598,1.223,4.038,2.807
	c0.136,0.127,6.177,6.062,10.26,22.602c4.093,16.622,1.612,25.817,1.576,25.904c-0.508,2.901-1.331,4.241-2.78,4.595l-45.708-0.055
	h-1.376l-0.02,1.372l-0.058,4.397c-0.027,3.317,2.635,6.048,5.953,6.106l13.916,0.173c0.59,0,1.068-0.069,1.531-0.182
	c2.644-0.644,4.527-3.02,4.563-5.772l0.045-6.104l1.848,0.032l-0.045,6.103c-0.037,3.585-2.499,6.691-5.977,7.557
	C48.622,69.739,47.987,69.807,47.335,69.807L47.335,69.807z M61.651,1.793l-0.823,0.479L3.592,35.211
	c-0.724,0.317-1.137,0.635-1.403,0.974L1.781,36.7l0.145,0.657l3.567,15.466l0.195,0.824l0.824,0.204
	c0.435,0.113,0.974,0.181,1.616,0.204l14.398,0.009h4.695l46.437,0.019h0.925l0.352-0.856c0.209-0.488,0.382-1.173,0.535-2.011
	c0.317-1.326,2.236-10.069-1.531-25.305c-3.875-15.706-9.426-21.406-9.67-21.637c-0.479-0.53-1.322-1.426-1.875-1.879L61.651,1.793
	L61.651,1.793z"/>
</svg>
